# xmcd
#
# Track frame offsets:
#	150
#	25850
#	48515
#	65287
#	73875
#	80325
#	96805
#	108057
#	115325
#	135107
#	152762
#	160457
#	168355
#	188732
#	196612
#	198565
#	207220
#	210917
#
# Disc length: 3084 seconds
#
# Revision: 1
# Processed by: cddbd v1.5.1PL0 Copyright (c) Steve Scherf et al.
# Submitted via: CDex 1.50Beta5
#
DISCID=ea0c0a12
DTITLE=MILK - エクスドライバー オリジナルサウンドトラック Vol.2+α
DYEAR=2001
DGENRE=
TTITLE0=MILK/狙撃手(trigger-mix)
TTITLE1=JAM Project featuring Rica Mat/疾風になれ(eXD-mix)
TTITLE2=ビデオ・サントラ/Circular emit(superfine-mix)
TTITLE3=ビデオ・サントラ/Drivin’ high
TTITLE4=ビデオ・サントラ/Doubtful eyes
TTITLE5=ビデオ・サントラ/Shadow Run(hyper mix)
TTITLE6=ビデオ・サントラ/Vehement drive
TTITLE7=ビデオ・サントラ/My little Journy(reprise)
TTITLE8=遠藤正明/Destiny(terror-mix)
TTITLE9=ビデオ・サントラ/Try vrooms(clever-mix)
TTITLE10=ビデオ・サントラ/Sorrow mind
TTITLE11=ビデオ・サントラ/Running some risk
TTITLE12=ビデオ・サントラ/Wrinkles on beat(bips-mix)
TTITLE13=ビデオ・サントラ/Break out run
TTITLE14=ビデオ・サントラ/Cool Breeze
TTITLE15=ビデオ・サントラ/Happy time
TTITLE16=七瀬光/疾風になれ(reprise)
TTITLE17=影山ヒロノブ/アコギな二人旅だぜ!!
EXTD=
EXTT0=
EXTT1=
EXTT2=
EXTT3=
EXTT4=
EXTT5=
EXTT6=
EXTT7=
EXTT8=
EXTT9=
EXTT10=
EXTT11=
EXTT12=
EXTT13=
EXTT14=
EXTT15=
EXTT16=
EXTT17=
PLAYORDER=
